<svg width="215" height="286" viewBox="0 0 215 286" fill="none" xmlns="http://www.w3.org/2000/svg">
<rect x="0.5" y="0.5" width="214" height="285" rx="9.5" fill="#BFE0B9" stroke="black"/>
<rect x="20.5" y="19.5" width="174" height="32" rx="9.5" fill="white" stroke="black"/>
<rect x="23.5" y="226.5" width="76" height="22" rx="9.5" fill="white" stroke="black"/>
<path d="M50.5 101C50.5 109.041 44.4239 115.5 37 115.5C29.5761 115.5 23.5 109.041 23.5 101C23.5 92.9588 29.5761 86.5 37 86.5C44.4239 86.5 50.5 92.9588 50.5 101Z" fill="white" stroke="black"/>
<path d="M99.5 101C99.5 109.041 93.4239 115.5 86 115.5C78.5761 115.5 72.5 109.041 72.5 101C72.5 92.9588 78.5761 86.5 86 86.5C93.4239 86.5 99.5 92.9588 99.5 101Z" fill="white" stroke="black"/>
<path d="M143.5 101C143.5 109.041 137.424 115.5 130 115.5C122.576 115.5 116.5 109.041 116.5 101C116.5 92.9588 122.576 86.5 130 86.5C137.424 86.5 143.5 92.9588 143.5 101Z" fill="white" stroke="black"/>
<path d="M187.5 101C187.5 109.041 181.424 115.5 174 115.5C166.576 115.5 160.5 109.041 160.5 101C160.5 92.9588 166.576 86.5 174 86.5C181.424 86.5 187.5 92.9588 187.5 101Z" fill="white" stroke="black"/>
<path d="M50.5 192C50.5 200.041 44.4239 206.5 37 206.5C29.5761 206.5 23.5 200.041 23.5 192C23.5 183.959 29.5761 177.5 37 177.5C44.4239 177.5 50.5 183.959 50.5 192Z" fill="white" stroke="black"/>
<path d="M99.5 192C99.5 200.041 93.4239 206.5 86 206.5C78.5761 206.5 72.5 200.041 72.5 192C72.5 183.959 78.5761 177.5 86 177.5C93.4239 177.5 99.5 183.959 99.5 192Z" fill="white" stroke="black"/>
<path d="M143.5 192C143.5 200.041 137.424 206.5 130 206.5C122.576 206.5 116.5 200.041 116.5 192C116.5 183.959 122.576 177.5 130 177.5C137.424 177.5 143.5 183.959 143.5 192Z" fill="white" stroke="black"/>
<path d="M187.5 192C187.5 200.041 181.424 206.5 174 206.5C166.576 206.5 160.5 200.041 160.5 192C160.5 183.959 166.576 177.5 174 177.5C181.424 177.5 187.5 183.959 187.5 192Z" fill="white" stroke="black"/>
<path d="M50.5 146C50.5 154.041 44.4239 160.5 37 160.5C29.5761 160.5 23.5 154.041 23.5 146C23.5 137.959 29.5761 131.5 37 131.5C44.4239 131.5 50.5 137.959 50.5 146Z" fill="white" stroke="black"/>
<path d="M99.5 146C99.5 154.041 93.4239 160.5 86 160.5C78.5761 160.5 72.5 154.041 72.5 146C72.5 137.959 78.5761 131.5 86 131.5C93.4239 131.5 99.5 137.959 99.5 146Z" fill="white" stroke="black"/>
<path d="M143.5 146C143.5 154.041 137.424 160.5 130 160.5C122.576 160.5 116.5 154.041 116.5 146C116.5 137.959 122.576 131.5 130 131.5C137.424 131.5 143.5 137.959 143.5 146Z" fill="white" stroke="black"/>
<path d="M187.5 146C187.5 154.041 181.424 160.5 174 160.5C166.576 160.5 160.5 154.041 160.5 146C160.5 137.959 166.576 131.5 174 131.5C181.424 131.5 187.5 137.959 187.5 146Z" fill="white" stroke="black"/>
<path d="M187.5 237C187.5 245.041 181.424 251.5 174 251.5C166.576 251.5 160.5 245.041 160.5 237C160.5 228.959 166.576 222.5 174 222.5C181.424 222.5 187.5 228.959 187.5 237Z" fill="white" stroke="black"/>
<path d="M143.5 237C143.5 245.041 137.424 251.5 130 251.5C122.576 251.5 116.5 245.041 116.5 237C116.5 228.959 122.576 222.5 130 222.5C137.424 222.5 143.5 228.959 143.5 237Z" fill="white" stroke="black"/>
<path d="M68.0078 241.652H55.9844V238.582H68.0078V241.652ZM68.0078 236.449H55.9844V233.379H68.0078V236.449Z" fill="black"/>
<path d="M175.496 107.527H172.473V103.062H167.984V99.9922H172.473V95.5039H175.496V99.9922H180.008V103.062H175.496V107.527Z" fill="black"/>
<path d="M175.859 147.172H172.156C171.594 147.172 171.164 147.043 170.867 146.785C170.578 146.52 170.434 146.18 170.434 145.766C170.434 145.344 170.574 145.004 170.855 144.746C171.145 144.48 171.578 144.348 172.156 144.348H175.859C176.438 144.348 176.867 144.48 177.148 144.746C177.438 145.004 177.582 145.344 177.582 145.766C177.582 146.18 177.441 146.52 177.16 146.785C176.879 147.043 176.445 147.172 175.859 147.172Z" fill="black"/>
<path d="M176.59 197.969L174.27 194.559L171.891 197.969C171.547 198.445 171.254 198.785 171.012 198.988C170.777 199.191 170.477 199.293 170.109 199.293C169.703 199.293 169.355 199.168 169.066 198.918C168.785 198.66 168.645 198.367 168.645 198.039C168.645 197.703 168.863 197.223 169.301 196.598L172.195 192.449L169.629 188.992C169.184 188.422 168.961 187.926 168.961 187.504C168.961 187.176 169.094 186.891 169.359 186.648C169.625 186.406 169.973 186.285 170.402 186.285C170.777 186.285 171.086 186.391 171.328 186.602C171.578 186.812 171.867 187.145 172.195 187.598L174.27 190.434L176.285 187.598C176.621 187.129 176.91 186.793 177.152 186.59C177.402 186.387 177.711 186.285 178.078 186.285C178.5 186.285 178.848 186.406 179.121 186.648C179.402 186.883 179.543 187.168 179.543 187.504C179.543 187.746 179.484 187.98 179.367 188.207C179.258 188.426 179.086 188.688 178.852 188.992L176.285 192.449L179.18 196.598C179.633 197.246 179.859 197.734 179.859 198.062C179.859 198.398 179.719 198.688 179.438 198.93C179.156 199.172 178.809 199.293 178.395 199.293C178.027 199.293 177.715 199.188 177.457 198.977C177.207 198.766 176.918 198.43 176.59 197.969Z" fill="black"/>
<path d="M177.188 230.906L173.906 244.418C173.797 244.863 173.699 245.215 173.613 245.473C173.535 245.73 173.41 245.93 173.238 246.07C173.074 246.219 172.832 246.293 172.512 246.293C171.715 246.293 171.316 245.949 171.316 245.262C171.316 245.082 171.395 244.633 171.551 243.914L174.82 230.402C174.992 229.684 175.156 229.191 175.312 228.926C175.469 228.66 175.773 228.527 176.227 228.527C176.617 228.527 176.914 228.621 177.117 228.809C177.328 228.996 177.434 229.254 177.434 229.582C177.434 229.824 177.352 230.266 177.188 230.906Z" fill="black"/>
</svg>
