<svg width="187" height="151" viewBox="0 0 187 151" fill="none" xmlns="http://www.w3.org/2000/svg">
<rect x="0.5" y="25.5" width="186" height="125" rx="4.5" stroke="black"/>
<rect x="0.5" y="25.5" width="186" height="34" rx="4.5" fill="black" stroke="black"/>
<line y1="57.5" x2="187" y2="57.5" stroke="black" stroke-width="5"/>
<rect x="26.5" y="0.5" width="15" height="41" rx="1.5" fill="black" stroke="white"/>
<rect x="144.5" y="0.5" width="15" height="41" rx="1.5" fill="black" stroke="white"/>
<rect x="17.5" y="70.5" width="32" height="21" rx="1.5" stroke="black"/>
<rect x="18.5" y="95.5" width="32" height="21" rx="1.5" fill="#FCF5A9" stroke="black"/>
<rect x="18.5" y="120.5" width="32" height="21" rx="1.5" stroke="black"/>
<rect x="135.5" y="70.5" width="32" height="21" rx="1.5" stroke="black"/>
<rect x="136.5" y="95.5" width="32" height="21" rx="1.5" stroke="black"/>
<rect x="136.5" y="120.5" width="32" height="21" rx="1.5" fill="#FCF5A9" stroke="black"/>
<rect x="94.5" y="70.5" width="32" height="21" rx="1.5" stroke="black"/>
<rect x="95.5" y="95.5" width="32" height="21" rx="1.5" stroke="black"/>
<rect x="95.5" y="120.5" width="32" height="21" rx="1.5" stroke="black"/>
<rect x="55.5" y="70.5" width="32" height="21" rx="1.5" fill="#FCF5A9" stroke="black"/>
<rect x="56.5" y="95.5" width="32" height="21" rx="1.5" stroke="black"/>
<rect x="56.5" y="120.5" width="32" height="21" rx="1.5" stroke="black"/>
</svg>
