<svg width="395" height="102" viewBox="0 0 395 102" fill="none" xmlns="http://www.w3.org/2000/svg">
<rect x="0.5" y="0.5" width="394" height="101" rx="9.5" stroke="black"/>
<circle cx="20.5" cy="51.5" r="14" fill="#BDE3F6" stroke="black"/>
<line x1="49" y1="4.37114e-08" x2="49" y2="25" stroke="black" stroke-width="2"/>
<line x1="99" y1="4.37114e-08" x2="99" y2="25" stroke="black" stroke-width="2"/>
<line x1="149" y1="4.37114e-08" x2="149" y2="25" stroke="black" stroke-width="2"/>
<line x1="199" y1="4.37114e-08" x2="199" y2="25" stroke="black" stroke-width="2"/>
<line x1="249" y1="4.37114e-08" x2="249" y2="25" stroke="black" stroke-width="2"/>
<line x1="299" y1="4.37114e-08" x2="299" y2="25" stroke="black" stroke-width="2"/>
<line x1="349" y1="4.37114e-08" x2="349" y2="25" stroke="black" stroke-width="2"/>
<line x1="72.5" x2="72.5" y2="12" stroke="black"/>
<line x1="122.5" x2="122.5" y2="12" stroke="black"/>
<line x1="172.5" x2="172.5" y2="12" stroke="black"/>
<line x1="222.5" x2="222.5" y2="12" stroke="black"/>
<line x1="272.5" x2="272.5" y2="12" stroke="black"/>
<line x1="322.5" x2="322.5" y2="12" stroke="black"/>
<line x1="372.5" x2="372.5" y2="12" stroke="black"/>
<path d="M47.6689 41.1304V35.354C46.5941 36.1792 45.8704 36.5918 45.498 36.5918C45.3203 36.5918 45.1616 36.522 45.022 36.3823C44.8866 36.2384 44.8188 36.0734 44.8188 35.8872C44.8188 35.6714 44.8866 35.5127 45.022 35.4111C45.1574 35.3096 45.3965 35.1784 45.7393 35.0176C46.2513 34.7764 46.6597 34.5225 46.9644 34.2559C47.2733 33.9893 47.5462 33.6909 47.7832 33.3608C48.0202 33.0308 48.1746 32.8276 48.2466 32.7515C48.3185 32.6753 48.4539 32.6372 48.6528 32.6372C48.8771 32.6372 49.057 32.724 49.1924 32.8975C49.3278 33.071 49.3955 33.3101 49.3955 33.6147V40.8828C49.3955 41.7334 49.1056 42.1587 48.5259 42.1587C48.2677 42.1587 48.0604 42.0719 47.9038 41.8984C47.7472 41.7249 47.6689 41.4689 47.6689 41.1304Z" fill="black"/>
<path d="M96.9009 40.502H100.214C100.544 40.502 100.796 40.5697 100.97 40.7051C101.143 40.8405 101.23 41.0246 101.23 41.2573C101.23 41.4647 101.16 41.6403 101.021 41.7842C100.885 41.9281 100.678 42 100.398 42H95.7266C95.4092 42 95.1616 41.9132 94.9839 41.7397C94.8062 41.562 94.7173 41.3547 94.7173 41.1177C94.7173 40.9653 94.7744 40.7643 94.8887 40.5146C95.0029 40.2607 95.1278 40.0618 95.2632 39.918C95.826 39.334 96.3338 38.8346 96.7866 38.4199C97.2394 38.001 97.5632 37.7259 97.7578 37.5947C98.1048 37.3493 98.3926 37.1038 98.6211 36.8584C98.8538 36.6087 99.0295 36.3548 99.1479 36.0967C99.2707 35.8343 99.332 35.5783 99.332 35.3286C99.332 35.0578 99.2664 34.8166 99.1353 34.605C99.0083 34.3892 98.8327 34.222 98.6084 34.1035C98.3883 33.985 98.1471 33.9258 97.8848 33.9258C97.3304 33.9258 96.8945 34.1691 96.5771 34.6558C96.5348 34.7192 96.4629 34.8927 96.3613 35.1763C96.264 35.4598 96.1519 35.6777 96.0249 35.8301C95.9022 35.9824 95.7202 36.0586 95.479 36.0586C95.2674 36.0586 95.0918 35.9888 94.9521 35.8491C94.8125 35.7095 94.7427 35.519 94.7427 35.2778C94.7427 34.9858 94.8083 34.6812 94.9395 34.3638C95.0706 34.0464 95.2653 33.7586 95.5234 33.5005C95.7858 33.2424 96.1159 33.035 96.5137 32.8784C96.9157 32.7176 97.3854 32.6372 97.9229 32.6372C98.5703 32.6372 99.1226 32.7388 99.5796 32.9419C99.8758 33.0773 100.136 33.2635 100.36 33.5005C100.585 33.7375 100.758 34.0125 100.881 34.3257C101.008 34.6346 101.071 34.9562 101.071 35.2905C101.071 35.8153 100.94 36.2935 100.678 36.7251C100.42 37.1525 100.155 37.4889 99.8843 37.7344C99.6134 37.9756 99.1585 38.3564 98.5195 38.877C97.8848 39.3975 97.4489 39.8016 97.2119 40.0894C97.1104 40.2036 97.0067 40.3411 96.9009 40.502Z" fill="black"/>
<path d="M147.561 36.3823C147.95 36.3823 148.285 36.2681 148.564 36.0396C148.847 35.811 148.989 35.4831 148.989 35.0557C148.989 34.7298 148.877 34.4505 148.653 34.2178C148.429 33.9808 148.126 33.8623 147.745 33.8623C147.487 33.8623 147.273 33.8983 147.104 33.9702C146.939 34.0422 146.808 34.1374 146.71 34.2559C146.613 34.3743 146.52 34.5267 146.431 34.7129C146.347 34.8991 146.268 35.0747 146.196 35.2397C146.154 35.3286 146.078 35.3984 145.968 35.4492C145.858 35.5 145.731 35.5254 145.587 35.5254C145.418 35.5254 145.261 35.4577 145.117 35.3223C144.978 35.1826 144.908 34.9985 144.908 34.77C144.908 34.55 144.973 34.3193 145.104 34.0781C145.24 33.8327 145.435 33.5999 145.688 33.3799C145.947 33.1598 146.266 32.9842 146.647 32.853C147.028 32.7176 147.453 32.6499 147.923 32.6499C148.333 32.6499 148.708 32.707 149.046 32.8213C149.385 32.9313 149.679 33.0921 149.929 33.3037C150.178 33.5153 150.367 33.7607 150.494 34.04C150.621 34.3193 150.684 34.6198 150.684 34.9414C150.684 35.3646 150.591 35.7285 150.405 36.0332C150.223 36.3337 149.96 36.6278 149.618 36.9155C149.948 37.0933 150.225 37.2964 150.449 37.5249C150.678 37.7534 150.849 38.0073 150.963 38.2866C151.078 38.5617 151.135 38.86 151.135 39.1816C151.135 39.5667 151.056 39.9391 150.9 40.2988C150.748 40.6585 150.521 40.9801 150.221 41.2637C149.92 41.543 149.563 41.763 149.148 41.9238C148.737 42.0804 148.283 42.1587 147.783 42.1587C147.275 42.1587 146.82 42.0677 146.418 41.8857C146.016 41.7038 145.684 41.4774 145.422 41.2065C145.164 40.9315 144.967 40.6479 144.832 40.356C144.7 40.064 144.635 39.8228 144.635 39.6323C144.635 39.3869 144.713 39.1901 144.87 39.042C145.03 38.8896 145.229 38.8135 145.466 38.8135C145.585 38.8135 145.699 38.8494 145.809 38.9214C145.919 38.9891 145.991 39.0716 146.025 39.1689C146.245 39.7572 146.48 40.1951 146.729 40.4829C146.983 40.7664 147.339 40.9082 147.796 40.9082C148.058 40.9082 148.31 40.8447 148.551 40.7178C148.797 40.5866 148.998 40.394 149.154 40.1401C149.315 39.8862 149.396 39.5921 149.396 39.2578C149.396 38.7627 149.26 38.3755 148.989 38.0962C148.718 37.8127 148.342 37.6709 147.859 37.6709C147.775 37.6709 147.644 37.6794 147.466 37.6963C147.288 37.7132 147.174 37.7217 147.123 37.7217C146.89 37.7217 146.71 37.6646 146.583 37.5503C146.457 37.4318 146.393 37.2689 146.393 37.0615C146.393 36.8584 146.469 36.6955 146.622 36.5728C146.774 36.4458 147 36.3823 147.301 36.3823H147.561Z" fill="black"/>
<path d="M198.551 41.1938V40.0132H195.365C194.963 40.0132 194.66 39.9222 194.457 39.7402C194.258 39.5583 194.159 39.3107 194.159 38.9976C194.159 38.9172 194.174 38.8368 194.203 38.7563C194.233 38.6717 194.277 38.585 194.336 38.4961C194.396 38.403 194.457 38.3141 194.521 38.2295C194.584 38.1449 194.662 38.0412 194.755 37.9185L198.12 33.418C198.34 33.1217 198.52 32.908 198.659 32.7769C198.803 32.6414 198.974 32.5737 199.173 32.5737C199.817 32.5737 200.138 32.9419 200.138 33.6782V38.5913H200.411C200.737 38.5913 200.997 38.6357 201.192 38.7246C201.391 38.8135 201.49 39.0081 201.49 39.3086C201.49 39.554 201.41 39.7339 201.249 39.8481C201.088 39.9582 200.847 40.0132 200.525 40.0132H200.138V41.1938C200.138 41.5197 200.066 41.763 199.922 41.9238C199.778 42.0804 199.586 42.1587 199.345 42.1587C199.108 42.1587 198.915 42.0783 198.767 41.9175C198.623 41.7524 198.551 41.5112 198.551 41.1938ZM195.822 38.5913H198.551V34.9033L195.822 38.5913Z" fill="#BDE3F6"/>
<path d="M198.551 40.0132H198.851V39.7132H198.551V40.0132ZM194.457 39.7402L194.255 39.9616L194.257 39.9637L194.457 39.7402ZM194.203 38.7563L194.485 38.8601L194.486 38.8555L194.203 38.7563ZM194.336 38.4961L194.586 38.6625L194.59 38.6572L194.336 38.4961ZM194.755 37.9185L194.994 38.0998L194.996 38.0981L194.755 37.9185ZM198.12 33.418L198.36 33.5976L198.36 33.5969L198.12 33.418ZM198.659 32.7769L198.865 32.9955L198.865 32.9953L198.659 32.7769ZM200.138 38.5913H199.838V38.8913H200.138V38.5913ZM201.192 38.7246L201.067 38.9975L201.07 38.9985L201.192 38.7246ZM201.249 39.8481L201.418 40.0958L201.423 40.0927L201.249 39.8481ZM200.138 40.0132V39.7132H199.838V40.0132H200.138ZM199.922 41.9238L200.143 42.1268L200.146 42.1239L199.922 41.9238ZM198.767 41.9175L198.541 42.1147L198.546 42.1207L198.767 41.9175ZM195.822 38.5913L195.581 38.4128L195.227 38.8913H195.822V38.5913ZM198.551 38.5913V38.8913H198.851V38.5913H198.551ZM198.551 34.9033H198.851V33.9937L198.31 34.7249L198.551 34.9033ZM198.851 41.1938V40.0132H198.251V41.1938H198.851ZM198.551 39.7132H195.365V40.3132H198.551V39.7132ZM195.365 39.7132C195.002 39.7132 194.784 39.6306 194.657 39.5168L194.257 39.9637C194.536 40.2138 194.923 40.3132 195.365 40.3132V39.7132ZM194.66 39.5189C194.533 39.4031 194.459 39.2414 194.459 38.9976H193.859C193.859 39.38 193.983 39.7134 194.255 39.9616L194.66 39.5189ZM194.459 38.9976C194.459 38.9548 194.466 38.9095 194.485 38.8601L193.922 38.6526C193.881 38.7641 193.859 38.8795 193.859 38.9976H194.459ZM194.486 38.8555C194.506 38.7986 194.538 38.7343 194.586 38.6625L194.087 38.3297C194.016 38.4356 193.959 38.5448 193.92 38.6572L194.486 38.8555ZM194.59 38.6572C194.645 38.5703 194.702 38.4877 194.761 38.4095L194.281 38.0495C194.212 38.1405 194.147 38.2357 194.083 38.335L194.59 38.6572ZM194.761 38.4095C194.824 38.3254 194.901 38.2222 194.994 38.0998L194.516 37.7371C194.423 37.8601 194.344 37.9643 194.281 38.0495L194.761 38.4095ZM194.996 38.0981L198.36 33.5976L197.879 33.2383L194.515 37.7388L194.996 38.0981ZM198.36 33.5969C198.578 33.3044 198.745 33.108 198.865 32.9955L198.454 32.5582C198.294 32.7081 198.102 32.9391 197.879 33.2391L198.36 33.5969ZM198.865 32.9953C198.953 32.9127 199.05 32.8737 199.173 32.8737V32.2737C198.899 32.2737 198.654 32.3702 198.454 32.5584L198.865 32.9953ZM199.173 32.8737C199.437 32.8737 199.584 32.9474 199.671 33.0472C199.765 33.1548 199.838 33.3471 199.838 33.6782H200.438C200.438 33.273 200.351 32.9131 200.123 32.6525C199.888 32.3841 199.553 32.2737 199.173 32.2737V32.8737ZM199.838 33.6782V38.5913H200.438V33.6782H199.838ZM200.138 38.8913H200.411V38.2913H200.138V38.8913ZM200.411 38.8913C200.714 38.8913 200.927 38.9334 201.067 38.9975L201.316 38.4517C201.068 38.3381 200.76 38.2913 200.411 38.2913V38.8913ZM201.07 38.9985C201.119 39.0207 201.19 39.0736 201.19 39.3086H201.79C201.79 38.9427 201.662 38.6063 201.314 38.4507L201.07 38.9985ZM201.19 39.3086C201.19 39.4835 201.137 39.5594 201.075 39.6036L201.423 40.0927C201.682 39.9083 201.79 39.6246 201.79 39.3086H201.19ZM201.08 39.6006C200.992 39.6607 200.822 39.7132 200.525 39.7132V40.3132C200.872 40.3132 201.185 40.2556 201.418 40.0957L201.08 39.6006ZM200.525 39.7132H200.138V40.3132H200.525V39.7132ZM199.838 40.0132V41.1938H200.438V40.0132H199.838ZM199.838 41.1938C199.838 41.4824 199.774 41.6402 199.699 41.7238L200.146 42.1239C200.359 41.8859 200.438 41.557 200.438 41.1938H199.838ZM199.701 41.7208C199.622 41.807 199.514 41.8587 199.345 41.8587V42.4587C199.657 42.4587 199.935 42.3538 200.143 42.1268L199.701 41.7208ZM199.345 41.8587C199.184 41.8587 199.074 41.8078 198.988 41.7142L198.546 42.1207C198.756 42.3488 199.032 42.4587 199.345 42.4587V41.8587ZM198.993 41.7203C198.914 41.63 198.851 41.4707 198.851 41.1938H198.251C198.251 41.5517 198.332 41.8749 198.541 42.1146L198.993 41.7203ZM195.822 38.8913H198.551V38.2913H195.822V38.8913ZM198.851 38.5913V34.9033H198.251V38.5913H198.851ZM198.31 34.7249L195.581 38.4128L196.063 38.7698L198.792 35.0818L198.31 34.7249Z" fill="black"/>
<path d="M250.018 34.2622H247.002L246.641 36.3188C247.242 35.9972 247.796 35.8364 248.304 35.8364C248.71 35.8364 249.089 35.9126 249.44 36.0649C249.795 36.2173 250.106 36.4289 250.373 36.6997C250.64 36.9663 250.849 37.2837 251.001 37.6519C251.154 38.02 251.23 38.4157 251.23 38.8389C251.23 39.4525 251.092 40.0111 250.817 40.5146C250.542 41.0182 250.145 41.4181 249.624 41.7144C249.108 42.0106 248.511 42.1587 247.834 42.1587C247.076 42.1587 246.461 42.019 245.987 41.7397C245.517 41.4604 245.183 41.141 244.984 40.7812C244.789 40.4173 244.692 40.0999 244.692 39.8291C244.692 39.6641 244.76 39.5075 244.895 39.3594C245.035 39.2113 245.208 39.1372 245.416 39.1372C245.771 39.1372 246.035 39.3424 246.209 39.7529C246.378 40.1296 246.607 40.4237 246.895 40.6353C247.182 40.8426 247.504 40.9463 247.859 40.9463C248.185 40.9463 248.471 40.8617 248.716 40.6924C248.962 40.5231 249.15 40.2904 249.281 39.9941C249.417 39.6979 249.484 39.3615 249.484 38.9849C249.484 38.5786 249.412 38.2316 249.269 37.9438C249.125 37.6561 248.932 37.4424 248.691 37.3027C248.45 37.1589 248.181 37.0869 247.885 37.0869C247.521 37.0869 247.261 37.1313 247.104 37.2202C246.947 37.3091 246.721 37.4657 246.425 37.6899C246.133 37.91 245.892 38.02 245.701 38.02C245.494 38.02 245.31 37.946 245.149 37.7979C244.988 37.6455 244.908 37.4741 244.908 37.2837C244.908 37.2625 244.931 37.1187 244.978 36.8521L245.511 33.8115C245.57 33.4476 245.68 33.1831 245.841 33.0181C246.002 32.853 246.264 32.7705 246.628 32.7705H249.979C250.64 32.7705 250.97 33.0223 250.97 33.5259C250.97 33.7459 250.889 33.9237 250.729 34.0591C250.568 34.1945 250.331 34.2622 250.018 34.2622Z" fill="black"/>
<path d="M296.355 36.9663C296.643 36.6235 296.956 36.3696 297.294 36.2046C297.633 36.0396 298.012 35.957 298.431 35.957C298.833 35.957 299.203 36.0332 299.542 36.1855C299.884 36.3337 300.183 36.5474 300.437 36.8267C300.695 37.1017 300.894 37.4276 301.033 37.8042C301.173 38.1808 301.243 38.5744 301.243 38.9849C301.243 39.5815 301.105 40.1232 300.83 40.6099C300.559 41.0965 300.178 41.4774 299.688 41.7524C299.201 42.0233 298.649 42.1587 298.031 42.1587C297.32 42.1587 296.706 41.9852 296.19 41.6382C295.674 41.2912 295.278 40.7791 295.003 40.1021C294.732 39.4207 294.597 38.5892 294.597 37.6074C294.597 36.8076 294.679 36.0924 294.844 35.4619C295.009 34.8314 295.246 34.3088 295.555 33.894C295.864 33.4793 296.239 33.1662 296.679 32.9546C297.119 32.743 297.62 32.6372 298.183 32.6372C298.725 32.6372 299.201 32.743 299.611 32.9546C300.026 33.1662 300.337 33.4285 300.544 33.7417C300.756 34.0549 300.862 34.3553 300.862 34.6431C300.862 34.8166 300.796 34.9753 300.665 35.1191C300.534 35.2588 300.367 35.3286 300.164 35.3286C299.986 35.3286 299.821 35.2736 299.668 35.1636C299.516 35.0493 299.404 34.8927 299.332 34.6938C299.235 34.4399 299.08 34.2368 298.869 34.0845C298.657 33.9279 298.412 33.8496 298.132 33.8496C297.908 33.8496 297.684 33.9152 297.459 34.0464C297.239 34.1733 297.053 34.3468 296.901 34.5669C296.592 35.0155 296.41 35.8153 296.355 36.9663ZM298.069 40.9082C298.496 40.9082 298.85 40.7347 299.129 40.3877C299.408 40.0365 299.548 39.5773 299.548 39.0103C299.548 38.6252 299.482 38.2951 299.351 38.02C299.22 37.7407 299.04 37.5291 298.812 37.3853C298.583 37.2371 298.331 37.1631 298.056 37.1631C297.794 37.1631 297.542 37.2329 297.301 37.3726C297.064 37.5122 296.871 37.7153 296.723 37.9819C296.579 38.2443 296.507 38.5532 296.507 38.9087C296.507 39.48 296.655 39.9561 296.952 40.3369C297.248 40.7178 297.62 40.9082 298.069 40.9082Z" fill="black"/>
<path d="M346.025 32.7832H350.252C350.659 32.7832 350.953 32.8467 351.135 32.9736C351.317 33.1006 351.408 33.3101 351.408 33.6021C351.408 33.7798 351.3 34.0146 351.084 34.3066C350.872 34.5986 350.629 34.9224 350.354 35.2778C350.083 35.6291 349.802 36.0671 349.51 36.5918C349.222 37.1165 348.958 37.7576 348.716 38.5151C348.615 38.8494 348.543 39.1266 348.5 39.3467C348.458 39.5667 348.412 39.8524 348.361 40.2036C348.31 40.5549 348.266 40.8236 348.228 41.0098C348.139 41.4414 348.012 41.7419 347.847 41.9111C347.686 42.0762 347.47 42.1587 347.199 42.1587C346.941 42.1587 346.734 42.0698 346.577 41.8921C346.421 41.7101 346.342 41.4435 346.342 41.0923C346.342 40.8215 346.399 40.4533 346.514 39.9878C346.628 39.5223 346.814 38.9658 347.072 38.3184C347.33 37.6667 347.652 37.0002 348.037 36.3188C348.426 35.6333 348.888 34.952 349.421 34.2749H346.025C345.669 34.2749 345.403 34.2114 345.225 34.0845C345.052 33.9533 344.965 33.7502 344.965 33.4751C344.965 33.1831 345.058 32.9948 345.244 32.9102C345.43 32.8255 345.691 32.7832 346.025 32.7832Z" fill="black"/>
</svg>
