<svg width="238" height="78" viewBox="0 0 238 78" fill="none" xmlns="http://www.w3.org/2000/svg">
<path d="M37.4375 53.7812L30.0312 26.3125L22.5312 53.7812C21.9479 55.8646 21.4792 57.3646 21.125 58.2812C20.7917 59.1771 20.1979 59.9896 19.3438 60.7188C18.4896 61.4271 17.3542 61.7812 15.9375 61.7812C14.7917 61.7812 13.8438 61.5625 13.0938 61.125C12.3646 60.7083 11.7708 60.1146 11.3125 59.3438C10.8542 58.5521 10.4792 57.625 10.1875 56.5625C9.89583 55.4792 9.63542 54.4792 9.40625 53.5625L1.78125 22.7188C1.32292 20.9271 1.09375 19.5625 1.09375 18.625C1.09375 17.4375 1.51042 16.4375 2.34375 15.625C3.17708 14.8125 4.20833 14.4062 5.4375 14.4062C7.125 14.4062 8.26042 14.9479 8.84375 16.0312C9.42708 17.1146 9.9375 18.6875 10.375 20.75L16.375 47.5L23.0938 22.4688C23.5938 20.5521 24.0417 19.0938 24.4375 18.0938C24.8333 17.0938 25.4792 16.2292 26.375 15.5C27.2708 14.7708 28.4896 14.4062 30.0312 14.4062C31.5938 14.4062 32.8021 14.7917 33.6562 15.5625C34.5312 16.3125 35.1354 17.1354 35.4688 18.0312C35.8021 18.9271 36.25 20.4062 36.8125 22.4688L43.5938 47.5L49.5938 20.75C49.8854 19.3542 50.1562 18.2604 50.4062 17.4688C50.6771 16.6771 51.125 15.9688 51.75 15.3438C52.3958 14.7188 53.3229 14.4062 54.5312 14.4062C55.7396 14.4062 56.7604 14.8125 57.5938 15.625C58.4479 16.4167 58.875 17.4167 58.875 18.625C58.875 19.4792 58.6458 20.8438 58.1875 22.7188L50.5625 53.5625C50.0417 55.6458 49.6042 57.1771 49.25 58.1562C48.9167 59.1146 48.3333 59.9583 47.5 60.6875C46.6875 61.4167 45.5312 61.7812 44.0312 61.7812C42.6146 61.7812 41.4792 61.4271 40.625 60.7188C39.7708 60.0104 39.1771 59.2188 38.8438 58.3438C38.5104 57.4479 38.0417 55.9271 37.4375 53.7812ZM87.9362 46.5312H71.2487C71.2696 48.4688 71.655 50.1771 72.405 51.6562C73.1758 53.1354 74.1862 54.25 75.4362 55C76.7071 55.75 78.1029 56.125 79.6237 56.125C80.6446 56.125 81.5717 56.0104 82.405 55.7812C83.2592 55.5312 84.0821 55.1562 84.8737 54.6562C85.6654 54.1354 86.3946 53.5833 87.0612 53C87.7279 52.4167 88.5925 51.625 89.655 50.625C90.0925 50.25 90.7175 50.0625 91.53 50.0625C92.405 50.0625 93.1133 50.3021 93.655 50.7812C94.1967 51.2604 94.4675 51.9375 94.4675 52.8125C94.4675 53.5833 94.1654 54.4896 93.5612 55.5312C92.9571 56.5521 92.0404 57.5417 90.8112 58.5C89.6029 59.4375 88.0717 60.2188 86.2175 60.8438C84.3842 61.4688 82.2696 61.7812 79.8737 61.7812C74.3946 61.7812 70.1342 60.2188 67.0925 57.0938C64.0508 53.9688 62.53 49.7292 62.53 44.375C62.53 41.8542 62.905 39.5208 63.655 37.375C64.405 35.2083 65.4987 33.3542 66.9362 31.8125C68.3737 30.2708 70.1446 29.0938 72.2487 28.2812C74.3529 27.4479 76.6862 27.0312 79.2487 27.0312C82.5821 27.0312 85.4362 27.7396 87.8112 29.1562C90.2071 30.5521 91.9987 32.3646 93.1862 34.5938C94.3737 36.8229 94.9675 39.0938 94.9675 41.4062C94.9675 43.5521 94.3529 44.9479 93.1237 45.5938C91.8946 46.2188 90.1654 46.5312 87.9362 46.5312ZM71.2487 41.6875H86.7175C86.5092 38.7708 85.7175 36.5938 84.3425 35.1562C82.9883 33.6979 81.1967 32.9688 78.9675 32.9688C76.8425 32.9688 75.0925 33.7083 73.7175 35.1875C72.3633 36.6458 71.5404 38.8125 71.2487 41.6875ZM126.841 56.9062V56.0625C125.695 57.375 124.56 58.4479 123.435 59.2812C122.331 60.0938 121.122 60.7083 119.81 61.125C118.518 61.5625 117.102 61.7812 115.56 61.7812C113.518 61.7812 111.622 61.3542 109.872 60.5C108.143 59.625 106.643 58.3854 105.372 56.7812C104.102 55.1771 103.133 53.2917 102.466 51.125C101.82 48.9583 101.497 46.6146 101.497 44.0938C101.497 38.7604 102.8 34.6042 105.404 31.625C108.008 28.6458 111.435 27.1562 115.685 27.1562C118.143 27.1562 120.216 27.5833 121.904 28.4375C123.591 29.2708 125.237 30.5625 126.841 32.3125V19.7188C126.841 17.9688 127.185 16.6458 127.872 15.75C128.581 14.8542 129.581 14.4062 130.872 14.4062C132.164 14.4062 133.154 14.8229 133.841 15.6562C134.55 16.4688 134.904 17.6771 134.904 19.2812V56.9062C134.904 58.5312 134.529 59.75 133.779 60.5625C133.029 61.375 132.06 61.7812 130.872 61.7812C129.706 61.7812 128.737 61.3646 127.966 60.5312C127.216 59.6771 126.841 58.4688 126.841 56.9062ZM110.06 44.375C110.06 46.6875 110.414 48.6562 111.122 50.2812C111.852 51.9062 112.841 53.1354 114.091 53.9688C115.341 54.7812 116.706 55.1875 118.185 55.1875C119.685 55.1875 121.05 54.8021 122.279 54.0312C123.529 53.2396 124.518 52.0417 125.247 50.4375C125.997 48.8125 126.372 46.7917 126.372 44.375C126.372 42.1042 125.997 40.1562 125.247 38.5312C124.518 36.8854 123.518 35.6354 122.247 34.7812C120.997 33.9062 119.622 33.4688 118.122 33.4688C116.56 33.4688 115.164 33.9167 113.935 34.8125C112.706 35.6875 111.747 36.9583 111.06 38.625C110.393 40.2708 110.06 42.1875 110.06 44.375ZM153.277 31.9375V56.5938C153.277 58.3021 152.871 59.5938 152.059 60.4688C151.246 61.3438 150.215 61.7812 148.965 61.7812C147.715 61.7812 146.694 61.3333 145.902 60.4375C145.132 59.5417 144.746 58.2604 144.746 56.5938V32.1875C144.746 30.5 145.132 29.2292 145.902 28.375C146.694 27.5208 147.715 27.0938 148.965 27.0938C150.215 27.0938 151.246 27.5208 152.059 28.375C152.871 29.2292 153.277 30.4167 153.277 31.9375ZM149.059 23.125C147.871 23.125 146.85 22.7604 145.996 22.0312C145.163 21.3021 144.746 20.2708 144.746 18.9375C144.746 17.7292 145.173 16.7396 146.027 15.9688C146.902 15.1771 147.913 14.7812 149.059 14.7812C150.163 14.7812 151.142 15.1354 151.996 15.8438C152.85 16.5521 153.277 17.5833 153.277 18.9375C153.277 20.25 152.861 21.2812 152.027 22.0312C151.194 22.7604 150.205 23.125 149.059 23.125ZM194.776 33.3438V58.125C194.776 60.9583 194.474 63.3958 193.87 65.4375C193.266 67.4792 192.297 69.1667 190.964 70.5C189.63 71.8333 187.88 72.8229 185.714 73.4688C183.568 74.1146 180.891 74.4375 177.682 74.4375C174.745 74.4375 172.12 74.0208 169.807 73.1875C167.495 72.375 165.714 71.3125 164.464 70C163.214 68.7083 162.589 67.375 162.589 66C162.589 64.9583 162.943 64.1042 163.651 63.4375C164.36 62.7917 165.214 62.4688 166.214 62.4688C167.464 62.4688 168.557 63.0208 169.495 64.125C169.953 64.6875 170.422 65.25 170.901 65.8125C171.401 66.3958 171.943 66.8854 172.526 67.2812C173.13 67.6979 173.849 68 174.682 68.1875C175.516 68.3958 176.474 68.5 177.557 68.5C179.766 68.5 181.474 68.1875 182.682 67.5625C183.912 66.9583 184.766 66.1042 185.245 65C185.745 63.8958 186.037 62.7083 186.12 61.4375C186.203 60.1875 186.266 58.1667 186.307 55.375C184.995 57.2083 183.474 58.6042 181.745 59.5625C180.037 60.5208 177.995 61 175.62 61C172.766 61 170.266 60.2708 168.12 58.8125C165.995 57.3542 164.36 55.3125 163.214 52.6875C162.068 50.0625 161.495 47.0312 161.495 43.5938C161.495 41.0312 161.839 38.7188 162.526 36.6562C163.235 34.5938 164.235 32.8542 165.526 31.4375C166.818 30.0208 168.307 28.9583 169.995 28.25C171.682 27.5208 173.537 27.1562 175.557 27.1562C177.974 27.1562 180.068 27.625 181.839 28.5625C183.61 29.4792 185.255 30.9271 186.776 32.9062V31.75C186.776 30.2708 187.141 29.125 187.87 28.3125C188.599 27.5 189.537 27.0938 190.682 27.0938C192.328 27.0938 193.422 27.6354 193.964 28.7188C194.505 29.7812 194.776 31.3229 194.776 33.3438ZM170.057 44.1562C170.057 47.6146 170.807 50.2292 172.307 52C173.828 53.7708 175.787 54.6562 178.182 54.6562C179.599 54.6562 180.932 54.2812 182.182 53.5312C183.453 52.7604 184.485 51.6146 185.276 50.0938C186.068 48.5521 186.464 46.6875 186.464 44.5C186.464 41.0208 185.693 38.3125 184.151 36.375C182.63 34.4375 180.62 33.4688 178.12 33.4688C175.682 33.4688 173.724 34.3958 172.245 36.25C170.787 38.1042 170.057 40.7396 170.057 44.1562ZM234.994 44.4375C234.994 46.9792 234.598 49.3229 233.806 51.4688C233.015 53.6146 231.869 55.4583 230.369 57C228.869 58.5417 227.077 59.7292 224.994 60.5625C222.91 61.375 220.567 61.7812 217.962 61.7812C215.379 61.7812 213.056 61.3646 210.994 60.5312C208.931 59.6979 207.14 58.5104 205.619 56.9688C204.119 55.4062 202.973 53.5729 202.181 51.4688C201.41 49.3438 201.025 47 201.025 44.4375C201.025 41.8542 201.421 39.4896 202.212 37.3438C203.004 35.1979 204.14 33.3646 205.619 31.8438C207.098 30.3229 208.89 29.1562 210.994 28.3438C213.098 27.5104 215.421 27.0938 217.962 27.0938C220.546 27.0938 222.89 27.5104 224.994 28.3438C227.098 29.1771 228.9 30.3646 230.4 31.9062C231.9 33.4479 233.035 35.2812 233.806 37.4062C234.598 39.5312 234.994 41.875 234.994 44.4375ZM226.431 44.4375C226.431 40.9583 225.66 38.25 224.119 36.3125C222.598 34.375 220.546 33.4062 217.962 33.4062C216.296 33.4062 214.827 33.8438 213.556 34.7188C212.285 35.5729 211.306 36.8438 210.619 38.5312C209.931 40.2188 209.587 42.1875 209.587 44.4375C209.587 46.6667 209.921 48.6146 210.587 50.2812C211.275 51.9479 212.244 53.2292 213.494 54.125C214.765 55 216.254 55.4375 217.962 55.4375C220.546 55.4375 222.598 54.4688 224.119 52.5312C225.66 50.5729 226.431 47.875 226.431 44.4375Z" fill="black"/>
<circle cx="149" cy="18" r="8" fill="#F3CDF3"/>
<ellipse cx="218" cy="44.5" rx="10" ry="11.5" fill="#BEE4BA"/>
</svg>
